#!OML:ASF H:\Not Pregnant\Project 1\Capture day 1\Session 1\non-pregnant.ASF
:FULLY-SPECIFIED
:DEGREES
895
root 7.04606 16.1268 13.6989 -155.454 -195.786 -172.078
lowerback -4.94864 -2.4402 -3.55264
upperback -13.7063 -3.4861 -2.35661
thorax -11.9439 -1.45319 -0.409722
lowerneck 11.3649 -13.0426 -30.2731
upperneck -10.987 -21.0332 44.3272
head 4.64916 -12.2625 20.6038
rclavicle 2.53016e-014 2.25621e-014
rhumerus -38.2019 -11.7055 -69.7155
rradius 36.6948
rwrist 17.4571
rhand -15.9237 -6.04027
rfingers 7.12502
rthumb -169.726 144.231
lclavicle 2.53016e-014 2.25621e-014
lhumerus -47.6879 -1.29126 85.5654
lradius 31.3389
lwrist 34.4982
lhand -12.6191 -3.90684
lfingers 7.12502
lthumb 13.4603 25.6382
rfemur -48.899 -1.23536 14.7711
rtibia 37.3896
rfoot -5.22002 6.66844
rtoes -18.6622
lfemur 6.54596 2.24823 -23.4884
ltibia 18.3452
lfoot 16.8402 -14.0098
ltoes 1.67
896
root 7.04088 16.1497 13.7963 -155.864 -196.215 -172.359
lowerback -4.48062 -2.49986 -3.10124
upperback -13.6077 -3.57584 -2.27614
thorax -12.1243 -1.5386 -0.547291
lowerneck 11.2723 -13.0109 -30.3018
upperneck -11.0638 -20.9507 44.398
head 4.63364 -12.2199 20.6695
rclavicle -2.35311e-014 -1.72446e-014
rhumerus -37.5762 -11.253 -69.8283
rradius 37.3714
rwrist 16.8158
rhand -16.8337 -6.25309
rfingers 7.12502
rthumb -170.604 143.976
lclavicle -2.35311e-014 -1.72446e-014
lhumerus -47.2046 -1.89693 86.0562
lradius 32.2312
lwrist 35.0955
lhand -12.5748 -3.69508
lfingers 7.12502
lthumb 13.503 25.8472
rfemur -47.7645 -0.89468 15.0584
rtibia 36.9342
rfoot -5.46053 6.19206
rtoes -18.8667
lfemur 5.36767 1.71373 -22.9209
ltibia 23.2634
lfoot 15.9011 -13.5303
ltoes 1.37639
897
root 7.03542 16.1703 13.8921 -156.334 -196.65 -172.731
lowerback -4.00675 -2.54382 -2.59611
upperback -13.4953 -3.63538 -2.17056
thorax -12.2961 -1.61363 -0.687892
lowerneck 11.2321 -12.9836 -30.3294
upperneck -11.135 -20.8866 44.4427
head 4.61072 -12.1891 20.7195
rclavicle 6.3549e-015 2.28602e-015
rhumerus -36.952 -10.8302 -69.8997
rradius 38.0181
rwrist 16.1149
rhand -17.5593 -6.42063
rfingers 7.12502
rthumb -171.304 143.778
lclavicle 6.3549e-015 2.28602e-015
lhumerus -46.6887 -2.53963 86.5626
lradius 33.1569
lwrist 35.606
lhand -12.5772 -3.61301
lfingers 7.12502
lthumb 13.5007 25.9294
rfemur -46.5795 -0.580712 15.4868
rtibia 36.4244
rfoot -5.72075 5.75688
rtoes -19.4264
lfemur 4.24472 1.17829 -22.2602
ltibia 28.1301
lfoot 15.219 -13.4362
ltoes 0.816416
898
root 7.03017 16.1874 13.9866 -156.842 -197.069 -173.179
lowerback -3.55115 -2.57138 -2.05229
upperback -13.3785 -3.66297 -2.04619
thorax -12.4554 -1.67628 -0.831819
lowerneck 11.2467 -12.9543 -30.365
upperneck -11.1963 -20.8364 44.4713
head 4.58285 -12.1692 20.7643
rclavicle -5.41688e-015 4.91992e-015
rhumerus -36.3371 -10.4237 -69.9376
rradius 38.635
rwrist 15.3473
rhand -18.1051 -6.55181
rfingers 7.12502
rthumb -171.831 143.626
lclavicle -5.41688e-015 4.91992e-015
lhumerus -46.1613 -3.2125 87.0752
lradius 34.126
lwrist 36.0325
lhand -12.6359 -3.67694
lfingers 7.12502
lthumb 13.4442 25.8692
rfemur -45.372 -0.314622 16.0395
rtibia 35.873
rfoot -6.01774 5.38559
rtoes -20.3417
lfemur 3.12529 0.657616 -21.5324
ltibia 33.005
lfoot 14.7148 -13.813
ltoes -0.379148
899
root 7.02562 16.2017 14.0805 -157.375 -197.469 -173.704
lowerback -3.13227 -2.58272 -1.45795
upperback -13.2585 -3.65745 -1.90352
thorax -12.5925 -1.72744 -0.987691
lowerneck 11.3088 -12.9255 -30.4088
upperneck -11.2484 -20.8022 44.4872
head 4.55308 -12.1607 20.8041
rclavicle -2.76559e-014 3.27995e-015
rhumerus -35.7327 -10.0274 -69.9504
rradius 39.2349
rwrist 14.5013
rhand -18.4699 -6.66039
rfingers 7.12502
rthumb -172.183 143.504
lclavicle -2.76559e-014 3.27995e-015
lhumerus -45.6268 -3.89588 87.5765
lradius 35.1312
lwrist 36.3582
lhand -12.7241 -3.89081
lfingers 7.12502
lthumb 13.3592 25.6609
rfemur -44.1669 -0.0935372 16.704
rtibia 35.2877
rfoot -6.32017 5.10829
rtoes -21.317
lfemur 1.98204 0.17581 -20.7317
ltibia 37.9111
lfoot 14.3041 -14.6691
ltoes -2.32756
900
root 7.02263 16.213 14.174 -157.923 -197.86 -174.318
lowerback -2.76756 -2.57863 -0.78675
upperback -13.1397 -3.6185 -1.74359
thorax -12.7032 -1.76997 -1.17258
lowerneck 11.4139 -12.8958 -30.4591
upperneck -11.2864 -20.7827 44.4943
head 4.5236 -12.1626 20.8412
rclavicle 1.50952e-015 -2.36057e-014
rhumerus -35.1362 -9.63878 -69.946
rradius 39.8077
rwrist 13.5843
rhand -18.6877 -6.76432
rfingers 7.12502
rthumb -172.393 143.392
lclavicle 1.50952e-015 -2.36057e-014
lhumerus -45.0939 -4.58128 88.0568
lradius 36.1777
lwrist 36.585
lhand -12.8452 -4.24382
lfingers 7.12502
lthumb 13.2424 25.3155
rfemur -42.9747 0.0562092 17.4947
rtibia 34.6719
rfoot -6.63715 4.93522
rtoes -22.2656
lfemur 0.801051 -0.246571 -19.8442
ltibia 42.8534
lfoot 13.9316 -15.8938
ltoes -4.85867
901
root 7.02125 16.2214 14.2669 -158.475 -198.237 -175.026
lowerback -2.47258 -2.55815 -0.0300396
upperback -13.022 -3.54432 -1.56425
thorax -12.7777 -1.8037 -1.39035
lowerneck 11.5515 -12.8684 -30.513
upperneck -11.3164 -20.7776 44.4934
head 4.49465 -12.174 20.8737
rclavicle -6.07536e-014 -2.22639e-014
rhumerus -34.5347 -9.26299 -69.9249
rradius 40.3547
rwrist 12.5729
rhand -18.7459 -6.85997
rfingers 7.12502
rthumb -172.45 143.295
lclavicle -6.07536e-014 -2.22639e-014
lhumerus -44.5534 -5.26253 88.5115
lradius 37.2507
lwrist 36.7185
lhand -12.9958 -4.73512
lfingers 7.12502
lthumb 13.0972 24.8336
rfemur -41.8118 0.135267 18.4141
rtibia 34.0235
rfoot -6.94884 4.86559
rtoes -23.0665
lfemur -0.428565 -0.586386 -18.859
ltibia 47.8218
lfoot 13.6497 -17.3114
ltoes -7.63043
902
root 7.02219 16.2274 14.3596 -159.024 -198.605 -175.826
lowerback -2.25492 -2.52162 0.82378
upperback -12.9041 -3.43643 -1.36997
thorax -12.8107 -1.83069 -1.65296
lowerneck 11.7058 -12.8482 -30.5642
upperneck -11.3358 -20.7902 44.4871
head 4.47101 -12.1952 20.898
rclavicle 1.0871e-014 2.52953e-014
rhumerus -33.9305 -8.91406 -69.885
rradius 40.888
rwrist 11.4639
rhand -18.6169 -6.95534
rfingers 7.12502
rthumb -172.325 143.204
lclavicle 1.0871e-014 2.52953e-014
lhumerus -44.0109 -5.93084 88.9342
lradius 38.37
lwrist 36.7735
lhand -13.1845 -5.31353
lfingers 7.12502
lthumb 12.9154 24.2668
rfemur -40.6776 0.118654 19.4652
rtibia 33.3378
rfoot -7.25913 4.89584
rtoes -23.7854
lfemur -1.7012 -0.838932 -17.7749
ltibia 52.7991
lfoot 13.4971 -18.7689
ltoes -10.1234
903
root 7.0251 16.2323 14.4524 -159.551 -198.949 -176.683
lowerback -2.11921 -2.46977 1.73309
upperback -12.7855 -3.3007 -1.16869
thorax -12.7956 -1.84921 -1.94587
lowerneck 11.8561 -12.8396 -30.6057
upperneck -11.3388 -20.8214 44.4736
head 4.45723 -12.2244 20.9085
rclavicle -6.26172e-015 2.33572e-015
rhumerus -33.3121 -8.5933 -69.8372
rradius 41.375
rwrist 10.3665
rhand -18.4136 -7.04586
rfingers 7.12502
rthumb -172.129 143.121
lclavicle -6.26172e-015 2.33572e-015
lhumerus -43.4632 -6.57495 89.321
lradius 39.5362
lwrist 36.7562
lhand -13.4125 -5.94239
lfingers 7.12502
lthumb 12.6956 23.6517
rfemur -39.5832 0.019586 20.5948
rtibia 32.6119
rfoot -7.54427 5.03419
rtoes -24.2489
lfemur -3.01431 -0.998971 -16.6242
ltibia 57.7557
lfoot 13.5094 -20.1372
ltoes -11.8686
904
root 7.02954 16.2374 14.5455 -160.041 -199.25 -177.544
lowerback -2.04046 -2.40343 2.63867
upperback -12.6823 -3.14438 -0.969646
thorax -12.7633 -1.85665 -2.24414
lowerneck 12.0245 -12.8322 -30.6458
upperneck -11.3287 -20.8623 44.454
head 4.4458 -12.2593 20.9144
rclavicle -6.78974e-015 -1.74931e-014
rhumerus -32.7153 -8.28303 -69.7797
rradius 41.8286
rwrist 9.33089
rhand -18.158 -7.14305
rfingers 7.12502
rthumb -171.882 143.033
lclavicle -6.78974e-015 -1.74931e-014
lhumerus -42.9402 -7.18333 89.6775
lradius 40.7467
lwrist 36.6802
lhand -13.6802 -6.62877
lfingers 7.12502
lthumb 12.4374 22.9812
rfemur -38.5301 -0.141078 21.736
rtibia 31.8491
rfoot -7.80414 5.26225
rtoes -24.4744
lfemur -4.36922 -1.05587 -15.459
ltibia 62.6639
lfoot 13.6322 -21.3547
ltoes -13.2771
905
root 7.03504 16.2436 14.6396 -160.481 -199.49 -178.367
lowerback -2.0185 -2.32218 3.48751
upperback -12.5865 -2.97257 -0.78324
thorax -12.7002 -1.85011 -2.52907
lowerneck 12.1954 -12.8312 -30.6804
upperneck -11.3144 -20.9138 44.4337
head 4.43854 -12.2996 20.915
rclavicle 1.70706e-014 1.7344e-014
rhumerus -32.1319 -7.98458 -69.7213
rradius 42.2386
rwrist 8.43171
rhand -17.9061 -7.24318
rfingers 7.12502
rthumb -171.639 142.942
lclavicle 1.70706e-014 1.7344e-014
lhumerus -42.4201 -7.73226 89.9913
lradius 41.982
lwrist 36.5445
lhand -13.9317 -7.38957
lfingers 7.12502
lthumb 12.195 22.2349
rfemur -37.519 -0.341012 22.8305
rtibia 31.0588
rfoot -8.03307 5.57694
rtoes -24.3962
lfemur -5.76237 -0.999647 -14.3222
ltibia 67.4996
lfoot 13.7395 -22.4232
ltoes -14.3784
906
root 7.0411 16.2509 14.7342 -160.862 -199.652 -179.099
lowerback -2.03594 -2.22668 4.2253
upperback -12.4978 -2.79131 -0.622136
thorax -12.6129 -1.82744 -2.78267
lowerneck 12.3676 -12.8365 -30.7067
upperneck -11.3049 -20.9725 44.4178
head 4.43276 -12.3443 20.9137
rclavicle 5.10628e-015 3.23025e-015
rhumerus -31.563 -7.70182 -69.6671
rradius 42.5925
rwrist 7.72349
rhand -17.6948 -7.33456
rfingers 7.12502
rthumb -171.435 142.859
lclavicle 5.10628e-015 3.23025e-015
lhumerus -41.9078 -8.20972 90.2617
lradius 43.243
lwrist 36.3659
lhand -14.1522 -8.23955
lfingers 7.12502
lthumb 11.9823 21.3975
rfemur -36.5514 -0.571021 23.8241
rtibia 30.2578
rfoot -8.24714 5.95775
rtoes -24.1416
lfemur -7.19188 -0.827735 -13.2688
ltibia 72.249
lfoot 13.641 -23.3642
ltoes -15.5203
907
root 7.04751 16.2595 14.8291 -161.176 -199.731 -179.722
lowerback -2.08301 -2.11553 4.82975
upperback -12.4177 -2.60054 -0.489929
thorax -12.5071 -1.78664 -2.99572
lowerneck 12.5517 -12.8428 -30.7293
upperneck -11.312 -21.0315 44.414
head 4.42293 -12.3917 20.9201
rclavicle -2.41399e-014 1.63003e-014
rhumerus -31.0236 -7.43736 -69.6108
rradius 42.8964
rwrist 7.2036
rhand -17.5292 -7.40394
rfingers 7.12502
rthumb -171.275 142.796
lclavicle -2.41399e-014 1.63003e-014
lhumerus -41.4208 -8.60986 90.4922
lradius 44.54
lwrist 36.1582
lhand -14.3295 -9.16047
lfingers 7.12502
lthumb 11.8114 20.4865
rfemur -35.6354 -0.809546 24.6879
rtibia 29.4651
rfoot -8.45315 6.3933
rtoes -23.7029
lfemur -8.67115 -0.534835 -12.3241
ltibia 76.907
lfoot 13.0716 -24.2291
ltoes -17.2808
908
root 7.05351 16.2681 14.9237 -161.449 -199.728 -180.236
lowerback -2.11827 -1.99439 5.30012
upperback -12.3401 -2.40628 -0.385929
thorax -12.4013 -1.73097 -3.16481
lowerneck 12.7446 -12.8475 -30.749
upperneck -11.343 -21.0857 44.4338
head 4.40836 -12.4404 20.943
rclavicle 2.54972e-014 -3.23025e-015
rhumerus -30.5033 -7.19082 -69.5644
rradius 43.149
rwrist 6.86834
rhand -17.403 -7.45291
rfingers 7.12502
rthumb -171.154 142.753
lclavicle 2.54972e-014 -3.23025e-015
lhumerus -40.9589 -8.92412 90.677
lradius 45.8632
lwrist 35.9461
lhand -14.4542 -10.14
lfingers 7.12502
lthumb 11.6911 19.5138
rfemur -34.7486 -1.03565 25.425
rtibia 28.6993
rfoot -8.66197 6.84576
rtoes -23.2052
lfemur -10.1708 -0.124202 -11.4814
ltibia 81.4688
lfoot 11.9008 -25.0094
ltoes -19.66
909
root 7.05871 16.2762 15.0178 -161.696 -199.639 -180.65
lowerback -2.12595 -1.86259 5.63806
upperback -12.2618 -2.20591 -0.307446
thorax -12.3009 -1.65954 -3.28766
lowerneck 12.9346 -12.8513 -30.7677
upperneck -11.3839 -21.1368 44.4735
head 4.39522 -12.4895 20.9789
rclavicle 3.53775e-015 -3.47873e-015
rhumerus -30.002 -6.97037 -69.5257
rradius 43.3502
rwrist 6.68159
rhand -17.2936 -7.46599
rfingers 7.12502
rthumb -171.048 142.744
lclavicle 3.53775e-015 -3.47873e-015
lhumerus -40.5278 -9.15954 90.822
lradius 47.209
lwrist 35.7514
lhand -14.5545 -11.1253
lfingers 7.12502
lthumb 11.5944 18.534
rfemur -33.8805 -1.21966 26.035
rtibia 27.9702
rfoot -8.86573 7.29426
rtoes -22.622
lfemur -11.6744 0.402745 -10.7336
ltibia 85.9264
lfoot 10.0779 -25.628
ltoes -22.6713
